<svg width="32" height="32" viewBox="0 0 32 32" fill="none" xmlns="http://www.w3.org/2000/svg">
<path opacity="0.2" d="M12.8 24.8L7.20002 19.2L4.73752 25.9875C4.66944 26.1656 4.65437 26.3596 4.69415 26.5461C4.73392 26.7326 4.82683 26.9035 4.96166 27.0384C5.09648 27.1732 5.26746 27.2661 5.45393 27.3059C5.64041 27.3457 5.83441 27.3306 6.01252 27.2625L12.8 24.8Z" fill="#009379"/>
<path opacity="0.2" d="M9.59998 12.6L19.4 22.4L24.525 20.5375C24.6834 20.48 24.8247 20.3833 24.9357 20.2565C25.0468 20.1297 25.124 19.9769 25.1601 19.8122C25.1963 19.6476 25.1903 19.4765 25.1426 19.3149C25.0949 19.1532 25.0072 19.0062 24.8875 18.8875L13.1125 7.11253C12.9938 6.99284 12.8468 6.90508 12.6851 6.85741C12.5235 6.80975 12.3524 6.80372 12.1878 6.83988C12.0231 6.87605 11.8703 6.95324 11.7435 7.06428C11.6167 7.17533 11.52 7.31662 11.4625 7.47503L9.59998 12.6Z" fill="#009379"/>
<path d="M4.73752 25.9875L11.4625 7.47503C11.5201 7.31662 11.6168 7.17533 11.7436 7.06428C11.8704 6.95324 12.0232 6.87605 12.1878 6.83988C12.3524 6.80372 12.5235 6.80975 12.6852 6.85741C12.8469 6.90508 12.9938 6.99284 13.1125 7.11253L24.8875 18.8875C25.0072 19.0062 25.095 19.1532 25.1426 19.3149C25.1903 19.4765 25.1963 19.6476 25.1602 19.8122C25.124 19.9769 25.0468 20.1297 24.9358 20.2565C24.8247 20.3833 24.6834 20.48 24.525 20.5375L6.01252 27.2625C5.83441 27.3306 5.64041 27.3457 5.45393 27.3059C5.26746 27.2661 5.09648 27.1732 4.96166 27.0384C4.82683 26.9036 4.73392 26.7326 4.69415 26.5461C4.65437 26.3596 4.66944 26.1656 4.73752 25.9875V25.9875Z" stroke="#009379" stroke-width="2" stroke-linecap="round" stroke-linejoin="round"/>
<path d="M21 9C21 9 21 6 24 6C27 6 27 3 27 3" stroke="#009379" stroke-width="2" stroke-linecap="round" stroke-linejoin="round"/>
<path d="M12.8 24.8L7.20001 19.2" stroke="#009379" stroke-width="2" stroke-linecap="round" stroke-linejoin="round"/>
<path d="M18 2V5" stroke="#009379" stroke-width="2" stroke-linecap="round" stroke-linejoin="round"/>
<path d="M27 14L29 16" stroke="#009379" stroke-width="2" stroke-linecap="round" stroke-linejoin="round"/>
<path d="M27 10L30 9" stroke="#009379" stroke-width="2" stroke-linecap="round" stroke-linejoin="round"/>
<path d="M9.59998 12.6L19.4 22.4" stroke="#009379" stroke-width="2" stroke-linecap="round" stroke-linejoin="round"/>
</svg>
