<svg width="32" height="32" viewBox="0 0 32 32" fill="none" xmlns="http://www.w3.org/2000/svg">
<path opacity="0.2" d="M16 4C13.5719 3.99929 11.2007 4.73521 9.19958 6.11053C7.1985 7.48586 5.66171 9.43589 4.79224 11.703C3.92277 13.9701 3.76152 16.4477 4.32978 18.8084C4.89805 21.1691 6.1691 23.3019 7.97503 24.925C8.72752 23.4432 9.87563 22.1986 11.2921 21.3293C12.7086 20.46 14.3381 19.9999 16 20C15.0111 20 14.0444 19.7068 13.2222 19.1573C12.3999 18.6079 11.7591 17.827 11.3806 16.9134C11.0022 15.9998 10.9032 14.9945 11.0961 14.0245C11.289 13.0546 11.7652 12.1637 12.4645 11.4645C13.1638 10.7652 14.0547 10.289 15.0246 10.0961C15.9945 9.90315 16.9998 10.0022 17.9134 10.3806C18.8271 10.759 19.608 11.3999 20.1574 12.2221C20.7068 13.0444 21 14.0111 21 15C21 16.3261 20.4732 17.5979 19.5356 18.5355C18.5979 19.4732 17.3261 20 16 20C17.662 19.9999 19.2915 20.46 20.708 21.3293C22.1244 22.1986 23.2725 23.4432 24.025 24.925C25.831 23.3019 27.102 21.1691 27.6703 18.8084C28.2385 16.4477 28.0773 13.9701 27.2078 11.703C26.3383 9.43589 24.8016 7.48586 22.8005 6.11053C20.7994 4.73521 18.4282 3.99929 16 4Z" fill="#009379"/>
<path d="M16 28C22.6274 28 28 22.6274 28 16C28 9.37258 22.6274 4 16 4C9.37258 4 4 9.37258 4 16C4 22.6274 9.37258 28 16 28Z" stroke="#009379" stroke-width="2" stroke-linecap="round" stroke-linejoin="round"/>
<path d="M16 20C18.7614 20 21 17.7614 21 15C21 12.2386 18.7614 10 16 10C13.2386 10 11 12.2386 11 15C11 17.7614 13.2386 20 16 20Z" stroke="#009379" stroke-width="2" stroke-linecap="round" stroke-linejoin="round"/>
<path d="M7.97501 24.925C8.72739 23.443 9.87546 22.1983 11.2919 21.3289C12.7084 20.4594 14.338 19.9992 16 19.9992C17.662 19.9992 19.2916 20.4594 20.7081 21.3289C22.1246 22.1983 23.2726 23.443 24.025 24.925" stroke="#009379" stroke-width="2" stroke-linecap="round" stroke-linejoin="round"/>
</svg>
