<svg width="12" height="12" viewBox="0 0 12 12" fill="none" xmlns="http://www.w3.org/2000/svg">
<path d="M6 10.5C8.48528 10.5 10.5 8.48528 10.5 6C10.5 3.51472 8.48528 1.5 6 1.5C3.51472 1.5 1.5 3.51472 1.5 6C1.5 8.48528 3.51472 10.5 6 10.5Z" stroke="#009379" stroke-miterlimit="10"/>
<path d="M6 6.5625C6.31066 6.5625 6.5625 6.31066 6.5625 6C6.5625 5.68934 6.31066 5.4375 6 5.4375C5.68934 5.4375 5.4375 5.68934 5.4375 6C5.4375 6.31066 5.68934 6.5625 6 6.5625Z" fill="#009379"/>
<path d="M8.25 6.5625C8.56066 6.5625 8.8125 6.31066 8.8125 6C8.8125 5.68934 8.56066 5.4375 8.25 5.4375C7.93934 5.4375 7.6875 5.68934 7.6875 6C7.6875 6.31066 7.93934 6.5625 8.25 6.5625Z" fill="#009379"/>
<path d="M3.75 6.5625C4.06066 6.5625 4.3125 6.31066 4.3125 6C4.3125 5.68934 4.06066 5.4375 3.75 5.4375C3.43934 5.4375 3.1875 5.68934 3.1875 6C3.1875 6.31066 3.43934 6.5625 3.75 6.5625Z" fill="#009379"/>
</svg>
