<svg width="12" height="12" viewBox="0 0 12 12" fill="none" xmlns="http://www.w3.org/2000/svg">
<path d="M4.41094 8.65311C3.87656 10.2422 1.75781 10.2422 1.75781 10.2422C1.75781 10.2422 1.75781 8.12343 3.34687 7.58905" stroke="#009379" stroke-linecap="round" stroke-linejoin="round"/>
<path d="M9.18284 4.94063L6.00002 8.12344L3.87659 6.00001L7.0594 2.81719C8.26409 1.61251 9.46878 1.62657 9.9844 1.70157C10.064 1.71218 10.1378 1.74869 10.1946 1.80545C10.2513 1.86221 10.2878 1.93607 10.2985 2.01563C10.3735 2.53126 10.3875 3.73594 9.18284 4.94063Z" stroke="#009379" stroke-linecap="round" stroke-linejoin="round"/>
<path d="M8.65313 5.47031V8.49843C8.65172 8.59735 8.61128 8.6917 8.54063 8.76093L7.02656 10.2797C6.97853 10.3277 6.91837 10.3617 6.8525 10.3782C6.78664 10.3946 6.71754 10.3929 6.65258 10.3732C6.58761 10.3535 6.52923 10.3165 6.48364 10.2661C6.43806 10.2158 6.40699 10.1541 6.39375 10.0875L6 8.12343" stroke="#009379" stroke-linecap="round" stroke-linejoin="round"/>
<path d="M6.52971 3.34686H3.50159C3.40268 3.34827 3.30833 3.38871 3.23909 3.45936L1.72034 4.97343C1.67236 5.02146 1.63832 5.08162 1.62185 5.14748C1.60539 5.21335 1.60711 5.28245 1.62684 5.34741C1.64657 5.41237 1.68356 5.47076 1.73388 5.51634C1.78419 5.56193 1.84594 5.593 1.91253 5.60624L3.87659 5.99999" stroke="#009379" stroke-linecap="round" stroke-linejoin="round"/>
</svg>
