<svg width="16" height="16" viewBox="0 0 16 16" fill="none" xmlns="http://www.w3.org/2000/svg">
<path d="M5.88125 11.5375C5.16875 13.6562 2.34375 13.6562 2.34375 13.6562C2.34375 13.6562 2.34375 10.8312 4.4625 10.1187" stroke="#009379" stroke-width="1.5" stroke-linecap="round" stroke-linejoin="round"/>
<path d="M12.2438 6.58749L8.00001 10.8312L5.16876 7.99999L9.41251 3.75624C11.0188 2.14999 12.625 2.16874 13.3125 2.26874C13.4186 2.28289 13.5171 2.33156 13.5928 2.40724C13.6684 2.48292 13.7171 2.5814 13.7313 2.68749C13.8313 3.37499 13.85 4.98124 12.2438 6.58749Z" stroke="#009379" stroke-width="1.5" stroke-linecap="round" stroke-linejoin="round"/>
<path d="M11.5375 7.29376V11.3313C11.5356 11.4631 11.4817 11.5889 11.3875 11.6813L9.36875 13.7063C9.3047 13.7702 9.22449 13.8156 9.13667 13.8376C9.04885 13.8595 8.95672 13.8572 8.8701 13.8309C8.78349 13.8046 8.70563 13.7553 8.64486 13.6882C8.58408 13.6211 8.54265 13.5388 8.525 13.45L8 10.8313" stroke="#009379" stroke-width="1.5" stroke-linecap="round" stroke-linejoin="round"/>
<path d="M8.70627 4.46249H4.66876C4.53688 4.46437 4.41108 4.51829 4.31876 4.61249L2.29377 6.63124C2.22979 6.69529 2.18441 6.7755 2.16245 6.86332C2.1405 6.95114 2.14279 7.04328 2.1691 7.12989C2.19541 7.21651 2.24473 7.29436 2.31182 7.35514C2.3789 7.41591 2.46123 7.45734 2.55002 7.47499L5.16876 7.99999" stroke="#009379" stroke-width="1.5" stroke-linecap="round" stroke-linejoin="round"/>
</svg>
