<svg width="20" height="20" viewBox="0 0 20 20" fill="none" xmlns="http://www.w3.org/2000/svg">
<path d="M10 17.5C14.1421 17.5 17.5 14.1421 17.5 10C17.5 5.85786 14.1421 2.5 10 2.5C5.85786 2.5 2.5 5.85786 2.5 10C2.5 14.1421 5.85786 17.5 10 17.5Z" stroke="#009379" stroke-width="1.66667" stroke-miterlimit="10"/>
<path d="M10 10.9375C10.5178 10.9375 10.9375 10.5178 10.9375 10C10.9375 9.48223 10.5178 9.0625 10 9.0625C9.48223 9.0625 9.0625 9.48223 9.0625 10C9.0625 10.5178 9.48223 10.9375 10 10.9375Z" fill="#009379"/>
<path d="M13.75 10.9375C14.2678 10.9375 14.6875 10.5178 14.6875 10C14.6875 9.48223 14.2678 9.0625 13.75 9.0625C13.2322 9.0625 12.8125 9.48223 12.8125 10C12.8125 10.5178 13.2322 10.9375 13.75 10.9375Z" fill="#009379"/>
<path d="M6.25 10.9375C6.76777 10.9375 7.1875 10.5178 7.1875 10C7.1875 9.48223 6.76777 9.0625 6.25 9.0625C5.73223 9.0625 5.3125 9.48223 5.3125 10C5.3125 10.5178 5.73223 10.9375 6.25 10.9375Z" fill="#009379"/>
</svg>
