<svg width="20" height="20" viewBox="0 0 20 20" fill="none" xmlns="http://www.w3.org/2000/svg">
<path d="M11.25 17.5H8.75" stroke="#009379" stroke-width="1.66667" stroke-linecap="round" stroke-linejoin="round"/>
<path d="M9.60939 1.54688C8.12502 2.73438 3.16408 7.48438 7.50002 15H12.5C16.75 7.48438 11.8594 2.74219 10.3906 1.54688C10.2811 1.45535 10.1428 1.40521 10 1.40521C9.85723 1.40521 9.71898 1.45535 9.60939 1.54688Z" stroke="#009379" stroke-width="1.66667" stroke-linecap="round" stroke-linejoin="round"/>
<path d="M5.77343 8.70312L3.32031 11.6406C3.25851 11.7127 3.2149 11.7986 3.19315 11.891C3.1714 11.9835 3.17214 12.0798 3.19531 12.1719L4.15624 16.5234C4.17943 16.6269 4.22855 16.7227 4.29897 16.8019C4.3694 16.8812 4.45881 16.9412 4.55882 16.9763C4.65882 17.0115 4.76612 17.0206 4.87063 17.0029C4.97514 16.9852 5.07343 16.9412 5.15624 16.875L7.49999 15" stroke="#009379" stroke-width="1.66667" stroke-linecap="round" stroke-linejoin="round"/>
<path d="M14.1797 8.64062L16.6797 11.6406C16.7415 11.7127 16.7851 11.7986 16.8068 11.891C16.8286 11.9835 16.8279 12.0798 16.8047 12.1719L15.8437 16.5234C15.8206 16.6269 15.7714 16.7227 15.701 16.8019C15.6306 16.8812 15.5412 16.9412 15.4412 16.9763C15.3412 17.0115 15.2339 17.0206 15.1294 17.0029C15.0248 16.9852 14.9266 16.9412 14.8437 16.875L12.5 15" stroke="#009379" stroke-width="1.66667" stroke-linecap="round" stroke-linejoin="round"/>
<path d="M10 8.4375C10.5178 8.4375 10.9375 8.01777 10.9375 7.5C10.9375 6.98223 10.5178 6.5625 10 6.5625C9.48223 6.5625 9.0625 6.98223 9.0625 7.5C9.0625 8.01777 9.48223 8.4375 10 8.4375Z" fill="#009379"/>
</svg>
