<svg width="12" height="12" viewBox="0 0 12 12" fill="none" xmlns="http://www.w3.org/2000/svg">
<path d="M1.5 2.25H3.75V7.125H1.5C1.40054 7.125 1.30516 7.08549 1.23483 7.01517C1.16451 6.94484 1.125 6.84946 1.125 6.75V2.625C1.125 2.52554 1.16451 2.43016 1.23483 2.35984C1.30516 2.28951 1.40054 2.25 1.5 2.25V2.25Z" stroke="#009379" stroke-linecap="round" stroke-linejoin="round"/>
<path d="M3.75 7.125L5.625 10.875C6.02282 10.875 6.40436 10.717 6.68566 10.4357C6.96696 10.1544 7.125 9.77282 7.125 9.375V8.25H10.0266C10.1329 8.25026 10.2381 8.22776 10.335 8.18402C10.4319 8.14027 10.5184 8.07629 10.5885 7.99636C10.6587 7.91644 10.7109 7.82243 10.7417 7.72065C10.7726 7.61886 10.7812 7.51166 10.7672 7.40625L10.2047 2.90625C10.1819 2.7256 10.0942 2.5594 9.95796 2.43865C9.82168 2.3179 9.64614 2.25085 9.46406 2.25H3.75" stroke="#009379" stroke-linecap="round" stroke-linejoin="round"/>
</svg>
