<svg width="16" height="16" viewBox="0 0 16 16" fill="none" xmlns="http://www.w3.org/2000/svg">
<path d="M9 14H7" stroke="#009379" stroke-width="1.5" stroke-linecap="round" stroke-linejoin="round"/>
<path d="M7.68753 1.23751C6.50003 2.18751 2.53128 5.98751 6.00003 12H10C13.4 5.98751 9.48753 2.19376 8.31253 1.23751C8.22486 1.16429 8.11425 1.12418 8.00003 1.12418C7.8858 1.12418 7.7752 1.16429 7.68753 1.23751Z" stroke="#009379" stroke-width="1.5" stroke-linecap="round" stroke-linejoin="round"/>
<path d="M4.61872 6.96249L2.65622 9.31249C2.60678 9.37017 2.5719 9.43887 2.5545 9.51282C2.5371 9.58677 2.53769 9.66382 2.55622 9.73749L3.32497 13.2187C3.34352 13.3015 3.38281 13.3782 3.43915 13.4415C3.49549 13.5049 3.56703 13.5529 3.64703 13.5811C3.72703 13.6092 3.81287 13.6165 3.89648 13.6023C3.98009 13.5881 4.05872 13.5529 4.12497 13.5L5.99997 12" stroke="#009379" stroke-width="1.5" stroke-linecap="round" stroke-linejoin="round"/>
<path d="M11.3438 6.91251L13.3438 9.31251C13.3932 9.37019 13.4281 9.43889 13.4455 9.51284C13.4629 9.58679 13.4623 9.66383 13.4438 9.73751L12.675 13.2188C12.6564 13.3015 12.6172 13.3782 12.5608 13.4416C12.5045 13.5049 12.4329 13.553 12.3529 13.5811C12.2729 13.6092 12.1871 13.6165 12.1035 13.6023C12.0199 13.5882 11.9413 13.5529 11.875 13.5L10 12" stroke="#009379" stroke-width="1.5" stroke-linecap="round" stroke-linejoin="round"/>
<path d="M8 6.75C8.41421 6.75 8.75 6.41421 8.75 6C8.75 5.58579 8.41421 5.25 8 5.25C7.58579 5.25 7.25 5.58579 7.25 6C7.25 6.41421 7.58579 6.75 8 6.75Z" fill="#009379"/>
</svg>
