<svg width="20" height="20" viewBox="0 0 20 20" fill="none" xmlns="http://www.w3.org/2000/svg">
<path d="M2.5 3.75H6.25V11.875H2.5C2.33424 11.875 2.17527 11.8092 2.05806 11.6919C1.94085 11.5747 1.875 11.4158 1.875 11.25V4.375C1.875 4.20924 1.94085 4.05027 2.05806 3.93306C2.17527 3.81585 2.33424 3.75 2.5 3.75V3.75Z" stroke="#009379" stroke-width="1.66667" stroke-linecap="round" stroke-linejoin="round"/>
<path d="M6.25 11.875L9.375 18.125C10.038 18.125 10.6739 17.8616 11.1428 17.3928C11.6116 16.9239 11.875 16.288 11.875 15.625V13.75H16.7109C16.8882 13.7504 17.0635 13.7129 17.225 13.64C17.3866 13.5671 17.5306 13.4605 17.6476 13.3273C17.7645 13.1941 17.8516 13.0374 17.9029 12.8677C17.9543 12.6981 17.9687 12.5194 17.9453 12.3438L17.0078 4.84375C16.9699 4.54267 16.8237 4.26567 16.5966 4.06442C16.3695 3.86317 16.0769 3.75141 15.7734 3.75H6.25" stroke="#009379" stroke-width="1.66667" stroke-linecap="round" stroke-linejoin="round"/>
</svg>
