<svg width="16" height="16" viewBox="0 0 16 16" fill="none" xmlns="http://www.w3.org/2000/svg">
<path d="M3.75 4.5C4.16421 4.5 4.5 4.16421 4.5 3.75C4.5 3.33579 4.16421 3 3.75 3C3.33579 3 3 3.33579 3 3.75C3 4.16421 3.33579 4.5 3.75 4.5Z" fill="#009379"/>
<path d="M8 4.5C8.41421 4.5 8.75 4.16421 8.75 3.75C8.75 3.33579 8.41421 3 8 3C7.58579 3 7.25 3.33579 7.25 3.75C7.25 4.16421 7.58579 4.5 8 4.5Z" fill="#009379"/>
<path d="M12.25 4.5C12.6642 4.5 13 4.16421 13 3.75C13 3.33579 12.6642 3 12.25 3C11.8358 3 11.5 3.33579 11.5 3.75C11.5 4.16421 11.8358 4.5 12.25 4.5Z" fill="#009379"/>
<path d="M3.75 8.75C4.16421 8.75 4.5 8.41421 4.5 8C4.5 7.58579 4.16421 7.25 3.75 7.25C3.33579 7.25 3 7.58579 3 8C3 8.41421 3.33579 8.75 3.75 8.75Z" fill="#009379"/>
<path d="M8 8.75C8.41421 8.75 8.75 8.41421 8.75 8C8.75 7.58579 8.41421 7.25 8 7.25C7.58579 7.25 7.25 7.58579 7.25 8C7.25 8.41421 7.58579 8.75 8 8.75Z" fill="#009379"/>
<path d="M12.25 8.75C12.6642 8.75 13 8.41421 13 8C13 7.58579 12.6642 7.25 12.25 7.25C11.8358 7.25 11.5 7.58579 11.5 8C11.5 8.41421 11.8358 8.75 12.25 8.75Z" fill="#009379"/>
<path d="M3.75 13C4.16421 13 4.5 12.6642 4.5 12.25C4.5 11.8358 4.16421 11.5 3.75 11.5C3.33579 11.5 3 11.8358 3 12.25C3 12.6642 3.33579 13 3.75 13Z" fill="#009379"/>
<path d="M8 13C8.41421 13 8.75 12.6642 8.75 12.25C8.75 11.8358 8.41421 11.5 8 11.5C7.58579 11.5 7.25 11.8358 7.25 12.25C7.25 12.6642 7.58579 13 8 13Z" fill="#009379"/>
<path d="M12.25 13C12.6642 13 13 12.6642 13 12.25C13 11.8358 12.6642 11.5 12.25 11.5C11.8358 11.5 11.5 11.8358 11.5 12.25C11.5 12.6642 11.8358 13 12.25 13Z" fill="#009379"/>
</svg>
