<svg width="12" height="12" viewBox="0 0 12 12" fill="none" xmlns="http://www.w3.org/2000/svg">
<path d="M4.33594 5.84999C4.72182 6.64687 5.36619 7.28958 6.16406 7.67342C6.22292 7.70129 6.28801 7.71335 6.35294 7.70842C6.41788 7.70349 6.4804 7.68173 6.53437 7.6453L7.70625 6.86248C7.75802 6.82737 7.81785 6.80594 7.88015 6.8002C7.94245 6.79447 8.00518 6.8046 8.0625 6.82967L10.2562 7.77186C10.3312 7.80307 10.3939 7.85805 10.4345 7.92835C10.4752 7.99866 10.4916 8.08037 10.4812 8.16092C10.4117 8.70361 10.1468 9.20237 9.73614 9.56388C9.32546 9.92538 8.79713 10.1249 8.25 10.125C6.55924 10.125 4.93774 9.45333 3.74219 8.25779C2.54665 7.06225 1.875 5.44074 1.875 3.74998C1.87512 3.20286 2.0746 2.67452 2.43611 2.26384C2.79761 1.85316 3.29637 1.58827 3.83906 1.51873C3.91961 1.50839 4.00133 1.52481 4.07163 1.56546C4.14193 1.60612 4.19692 1.66876 4.22812 1.74373L5.17031 3.94217C5.19481 3.99859 5.20506 4.06016 5.20016 4.12147C5.19525 4.18277 5.17535 4.24193 5.14219 4.29373L4.35937 5.48436C4.32452 5.53821 4.30407 5.6001 4.29997 5.66412C4.29586 5.72813 4.30825 5.79212 4.33594 5.84999V5.84999Z" stroke="#009379" stroke-linecap="round" stroke-linejoin="round"/>
</svg>
