<svg width="12" height="12" viewBox="0 0 12 12" fill="none" xmlns="http://www.w3.org/2000/svg">
<path d="M1.5 4.875H3.75V9.75H1.5C1.40054 9.75 1.30516 9.71049 1.23483 9.64017C1.16451 9.56984 1.125 9.47446 1.125 9.375V5.25C1.125 5.15054 1.16451 5.05516 1.23483 4.98484C1.30516 4.91451 1.40054 4.875 1.5 4.875V4.875Z" stroke="#009379" stroke-linecap="round" stroke-linejoin="round"/>
<path d="M3.75 4.875L5.625 1.125C6.02282 1.125 6.40436 1.28304 6.68566 1.56434C6.96696 1.84564 7.125 2.22718 7.125 2.625V3.75H10.0266C10.1329 3.74974 10.2381 3.77224 10.335 3.81598C10.4319 3.85973 10.5184 3.92372 10.5885 4.00364C10.6587 4.08356 10.7109 4.17757 10.7417 4.27935C10.7726 4.38114 10.7812 4.48834 10.7672 4.59375L10.2047 9.09375C10.1819 9.2744 10.0942 9.4406 9.95796 9.56135C9.82168 9.6821 9.64614 9.74915 9.46406 9.75H3.75" stroke="#009379" stroke-linecap="round" stroke-linejoin="round"/>
</svg>
