<svg width="12" height="12" viewBox="0 0 12 12" fill="none" xmlns="http://www.w3.org/2000/svg">
<path d="M2.8125 3.375C3.12316 3.375 3.375 3.12316 3.375 2.8125C3.375 2.50184 3.12316 2.25 2.8125 2.25C2.50184 2.25 2.25 2.50184 2.25 2.8125C2.25 3.12316 2.50184 3.375 2.8125 3.375Z" fill="#009379"/>
<path d="M6 3.375C6.31066 3.375 6.5625 3.12316 6.5625 2.8125C6.5625 2.50184 6.31066 2.25 6 2.25C5.68934 2.25 5.4375 2.50184 5.4375 2.8125C5.4375 3.12316 5.68934 3.375 6 3.375Z" fill="#009379"/>
<path d="M9.1875 3.375C9.49816 3.375 9.75 3.12316 9.75 2.8125C9.75 2.50184 9.49816 2.25 9.1875 2.25C8.87684 2.25 8.625 2.50184 8.625 2.8125C8.625 3.12316 8.87684 3.375 9.1875 3.375Z" fill="#009379"/>
<path d="M2.8125 6.5625C3.12316 6.5625 3.375 6.31066 3.375 6C3.375 5.68934 3.12316 5.4375 2.8125 5.4375C2.50184 5.4375 2.25 5.68934 2.25 6C2.25 6.31066 2.50184 6.5625 2.8125 6.5625Z" fill="#009379"/>
<path d="M6 6.5625C6.31066 6.5625 6.5625 6.31066 6.5625 6C6.5625 5.68934 6.31066 5.4375 6 5.4375C5.68934 5.4375 5.4375 5.68934 5.4375 6C5.4375 6.31066 5.68934 6.5625 6 6.5625Z" fill="#009379"/>
<path d="M9.1875 6.5625C9.49816 6.5625 9.75 6.31066 9.75 6C9.75 5.68934 9.49816 5.4375 9.1875 5.4375C8.87684 5.4375 8.625 5.68934 8.625 6C8.625 6.31066 8.87684 6.5625 9.1875 6.5625Z" fill="#009379"/>
<path d="M2.8125 9.75C3.12316 9.75 3.375 9.49816 3.375 9.1875C3.375 8.87684 3.12316 8.625 2.8125 8.625C2.50184 8.625 2.25 8.87684 2.25 9.1875C2.25 9.49816 2.50184 9.75 2.8125 9.75Z" fill="#009379"/>
<path d="M6 9.75C6.31066 9.75 6.5625 9.49816 6.5625 9.1875C6.5625 8.87684 6.31066 8.625 6 8.625C5.68934 8.625 5.4375 8.87684 5.4375 9.1875C5.4375 9.49816 5.68934 9.75 6 9.75Z" fill="#009379"/>
<path d="M9.1875 9.75C9.49816 9.75 9.75 9.49816 9.75 9.1875C9.75 8.87684 9.49816 8.625 9.1875 8.625C8.87684 8.625 8.625 8.87684 8.625 9.1875C8.625 9.49816 8.87684 9.75 9.1875 9.75Z" fill="#009379"/>
</svg>
