<svg width="12" height="12" viewBox="0 0 12 12" fill="none" xmlns="http://www.w3.org/2000/svg">
<path d="M6.75 10.5H5.25" stroke="#009379" stroke-linecap="round" stroke-linejoin="round"/>
<path d="M5.7656 0.92811C4.87497 1.64061 1.89841 4.49061 4.49997 8.99998H7.49997C10.05 4.49061 7.1156 1.6453 6.23435 0.92811C6.1686 0.873193 6.08565 0.843109 5.99997 0.843109C5.9143 0.843109 5.83135 0.873193 5.7656 0.92811Z" stroke="#009379" stroke-linecap="round" stroke-linejoin="round"/>
<path d="M3.46407 5.22186L1.9922 6.98436C1.95512 7.02762 1.92895 7.07915 1.9159 7.13461C1.90285 7.19007 1.9033 7.24786 1.9172 7.30311L2.49376 9.91405C2.50767 9.97611 2.53714 10.0336 2.5794 10.0812C2.62165 10.1287 2.6753 10.1647 2.7353 10.1858C2.79531 10.2069 2.85969 10.2124 2.92239 10.2017C2.9851 10.1911 3.04407 10.1647 3.09376 10.125L4.50001 8.99999" stroke="#009379" stroke-linecap="round" stroke-linejoin="round"/>
<path d="M8.50781 5.18439L10.0078 6.98439C10.0449 7.02765 10.0711 7.07917 10.0841 7.13463C10.0972 7.1901 10.0967 7.24788 10.0828 7.30314L9.50625 9.91407C9.49234 9.97614 9.46287 10.0336 9.42061 10.0812C9.37836 10.1287 9.32471 10.1647 9.26471 10.1858C9.2047 10.2069 9.14032 10.2124 9.07762 10.2018C9.01491 10.1911 8.95594 10.1647 8.90625 10.125L7.5 9.00001" stroke="#009379" stroke-linecap="round" stroke-linejoin="round"/>
<path d="M6 5.0625C6.31066 5.0625 6.5625 4.81066 6.5625 4.5C6.5625 4.18934 6.31066 3.9375 6 3.9375C5.68934 3.9375 5.4375 4.18934 5.4375 4.5C5.4375 4.81066 5.68934 5.0625 6 5.0625Z" fill="#009379"/>
</svg>
